HIERARCHY
ROOT Pelvis
{
	OFFSET 0.000000 0.000000 0.000000
	CHANNELS 6 Xposition Yposition Zposition Zrotation Yrotation Xrotation 
	JOINT Left_hip
	{
		OFFSET 0.067986 -0.089946 -0.007639
		CHANNELS 3 Zrotation Yrotation Xrotation
		JOINT Left_knee
		{
			OFFSET 0.036308 -0.388288 -0.004016
			CHANNELS 3 Zrotation Yrotation Xrotation
			JOINT Left_ankle
			{
				OFFSET -0.012264 -0.413250 -0.042878
				CHANNELS 3 Zrotation Yrotation Xrotation
				JOINT Left_foot
				{
					OFFSET 0.024043 -0.058563 0.118570
					CHANNELS 3 Zrotation Yrotation Xrotation
					End Site
					{
						OFFSET 0.000000 0.000000 0.000000
					}
				}
			}
		}
	}
	JOINT Right_hip
	{
		OFFSET -0.065648 -0.089374 -0.003858
		CHANNELS 3 Zrotation Yrotation Xrotation
		JOINT Right_knee
		{
			OFFSET -0.042132 -0.395021 -0.006361
			CHANNELS 3 Zrotation Yrotation Xrotation
			JOINT Right_ankle
			{
				OFFSET 0.014805 -0.413264 -0.041054
				CHANNELS 3 Zrotation Yrotation Xrotation
				JOINT Right_foot
				{
					OFFSET -0.021758 -0.049013 0.121832
					CHANNELS 3 Zrotation Yrotation Xrotation
					End Site
					{
						OFFSET 0.000000 0.000000 0.000000
					}
				}
			}
		}
	}
	JOINT Spine1
	{
		OFFSET -0.002755 0.104406 -0.022277
		CHANNELS 3 Zrotation Yrotation Xrotation
		JOINT Spine2
		{
			OFFSET 0.004136 0.129393 -0.002186
			CHANNELS 3 Zrotation Yrotation Xrotation
			JOINT Spine3
			{
				OFFSET 0.001906 0.049304 0.025578
				CHANNELS 3 Zrotation Yrotation Xrotation
				JOINT Neck
				{
					OFFSET -0.004620 0.210958 -0.044063
					CHANNELS 3 Zrotation Yrotation Xrotation
					JOINT Head
					{
						OFFSET 0.003833 0.067393 0.052435
						CHANNELS 3 Zrotation Yrotation Xrotation
						End Site
						{
							OFFSET 0.000000 0.000000 0.000000
						}
					}
				}
				JOINT Left_collar
				{
					OFFSET 0.070771 0.116689 -0.037192
					CHANNELS 3 Zrotation Yrotation Xrotation
					JOINT Left_shoulder
					{
						OFFSET 0.080652 0.031596 -0.005617
						CHANNELS 3 Zrotation Yrotation Xrotation
						JOINT Left_elbow
						{
							OFFSET 0.262654 -0.015020 -0.027939
							CHANNELS 3 Zrotation Yrotation Xrotation
							JOINT Left_wrist
							{
								OFFSET 0.250438 0.010062 -0.000990
								CHANNELS 3 Zrotation Yrotation Xrotation
								JOINT Left_palm
								{
									OFFSET 0.081198 -0.010037 -0.013706
									CHANNELS 3 Zrotation Yrotation Xrotation
									End Site
									{
										OFFSET 0.000000 0.000000 0.000000
									}
								}
							}
						}
					}
				}
				JOINT Right_collar
				{
					OFFSET -0.072972 0.115556 -0.040762
					CHANNELS 3 Zrotation Yrotation Xrotation
					JOINT Right_shoulder
					{
						OFFSET -0.082917 0.031841 -0.006673
						CHANNELS 3 Zrotation Yrotation Xrotation
						JOINT Right_elbow
						{
							OFFSET -0.252882 -0.013790 -0.020410
							CHANNELS 3 Zrotation Yrotation Xrotation
							JOINT Right_wrist
							{
								OFFSET -0.255570 0.009163 -0.005138
								CHANNELS 3 Zrotation Yrotation Xrotation
								JOINT Right_palm
								{
									OFFSET -0.080804 -0.007282 -0.010415
									CHANNELS 3 Zrotation Yrotation Xrotation
									End Site
									{
										OFFSET 0.000000 0.000000 0.000000
									}
								}
							}
						}
					}
				}
			}
		}
	}
}
MOTION
Frames: 15
Frame Time: 0.100000
0.000000 0.000000 0.000000 175.037647 23.634784 -17.191503 8.795792 5.496278 7.559923 -5.111845 -16.085227 -2.752695 -6.429517 12.461538 -7.885714 5.192076 1.221284 0.710374 -7.993268 -6.746140 6.948592 5.447540 11.016041 -0.416014 14.861570 -12.280499 -8.129586 -12.090303 9.089623 0.851073 1.439529 2.097903 7.513982 0.586488 -2.366762 1.439443 1.206118 0.267257 2.803091 1.413750 3.121278 4.317312 1.602075 0.143660 -2.414026 -6.086292 3.337118 -7.656184 -3.394231 1.722288 -13.729056 3.337171 -6.984282 -10.292620 0.849873 -5.040854 18.178939 -8.242237 -2.632369 -13.701990 6.118701 -1.729736 -5.667905 4.090036 -2.866536 -11.282429 -5.430029 6.998098 -12.155305 1.245675 1.583732 14.282662 8.852523 4.755439 -5.016884 
-0.000237 -0.000078 0.000589 175.036193 23.615925 -17.231182 8.815612 5.498096 7.688086 -5.099802 -16.116331 -2.821963 -6.442692 12.502568 -7.917008 5.248528 1.192392 0.752584 -8.010160 -6.758896 7.079769 5.449517 11.068544 -0.506577 14.881393 -12.299638 -8.139506 -12.099279 9.130167 0.851794 1.417876 2.119997 7.445037 0.606739 -2.362989 1.539276 1.217715 0.291316 2.822480 1.422821 3.143986 4.371714 1.571538 0.125935 -2.417150 -6.088114 3.370423 -7.663203 -3.367687 1.802103 -13.648293 3.151115 -7.162052 -10.218081 0.909350 -4.994500 18.159363 -8.321242 -2.683045 -13.764760 6.154943 -1.692192 -5.681762 4.031971 -2.830883 -11.316488 -5.378923 6.980817 -12.252064 1.175118 1.545375 14.395815 8.940035 4.799525 -5.129546 
-0.000353 -0.000099 0.000855 175.033511 23.602254 -17.295733 8.817825 5.482847 7.725307 -5.111338 -16.122711 -2.693902 -6.421451 12.505898 -8.018119 5.229664 1.209805 0.781577 -8.008098 -6.754179 7.160804 5.445428 11.081038 -0.477322 14.856514 -12.282416 -8.180670 -12.054146 9.115074 0.858950 1.412820 2.119652 7.468183 0.615700 -2.362579 1.590426 1.226040 0.301312 2.827716 1.406482 3.200717 4.331741 1.511886 0.160867 -2.397466 -6.144134 3.365093 -7.667574 -3.423627 1.809341 -13.638139 3.180289 -7.221074 -10.230052 0.865855 -4.987709 18.081330 -8.300090 -2.675788 -13.720698 6.214535 -1.644419 -5.676816 4.035041 -2.773314 -11.313274 -5.395632 6.983049 -12.267985 1.207213 1.535500 14.409959 8.932593 4.797042 -5.118531 
-0.000638 -0.000085 0.001086 175.033650 23.623999 -17.287777 8.813366 5.478500 7.748002 -5.130438 -16.145514 -2.708649 -6.396480 12.493305 -8.051629 5.210402 1.236636 0.781967 -8.033691 -6.755390 7.170473 5.453885 11.084384 -0.449903 14.857840 -12.275186 -8.228466 -12.047222 9.114646 0.855720 1.411147 2.130573 7.458790 0.608177 -2.344071 1.614084 1.220352 0.301679 2.826061 1.415354 3.210485 4.304498 1.503171 0.170792 -2.417648 -6.189444 3.377318 -7.666593 -3.456570 1.786020 -13.619086 3.219476 -7.284148 -10.193850 0.875454 -4.973359 18.099609 -8.304385 -2.678282 -13.715384 6.253558 -1.666338 -5.665634 4.052652 -2.811650 -11.300026 -5.388535 6.951180 -12.275367 1.207219 1.523254 14.432241 8.939987 4.800666 -5.128129 
-0.001057 -0.000146 0.001444 175.024006 23.617171 -17.245148 8.817169 5.477481 7.798879 -5.112535 -16.152198 -2.831142 -6.396254 12.498581 -8.048520 5.210762 1.218570 0.823889 -8.035372 -6.755241 7.216337 5.434173 11.077004 -0.568908 14.845387 -12.278211 -8.205517 -12.007245 9.110802 0.893424 1.396518 2.145223 7.406522 0.609952 -2.343344 1.625392 1.214608 0.296481 2.811922 1.454602 3.205109 4.343273 1.518079 0.159804 -2.404756 -6.244922 3.403683 -7.637804 -3.435560 1.846067 -13.585208 3.163270 -7.238857 -10.178115 0.856444 -4.981304 18.149453 -8.325440 -2.689405 -13.758961 6.312637 -1.694326 -5.646085 4.053126 -2.831020 -11.248963 -5.366683 6.994085 -12.214544 1.224931 1.536807 14.415215 8.950848 4.806886 -5.133512 
-0.001337 -0.000169 0.001626 175.018570 23.598987 -17.216113 8.806861 5.474675 7.744479 -5.137603 -16.129179 -2.739576 -6.343865 12.502173 -8.092737 5.142835 1.225132 0.836296 -8.033454 -6.760624 7.208256 5.421295 11.071101 -0.586121 14.839051 -12.257352 -8.198861 -11.961510 9.098939 0.920194 1.386607 2.169388 7.432364 0.593411 -2.307910 1.578861 1.202802 0.314280 2.798891 1.490649 3.202563 4.370545 1.542906 0.174694 -2.372675 -6.320932 3.447612 -7.638640 -3.379696 1.879084 -13.539127 3.226755 -7.401968 -10.088752 0.894622 -5.025677 18.268986 -8.352915 -2.699546 -13.780691 6.382064 -1.721964 -5.616126 4.012911 -2.906323 -11.207814 -5.325628 6.997945 -12.144012 1.212214 1.549313 14.439783 8.964462 4.815840 -5.134748 
-0.001719 -0.000226 0.001808 175.026804 23.599582 -17.242399 8.767934 5.451056 7.797802 -5.128865 -16.068644 -2.734152 -6.302269 12.477328 -8.110562 5.093101 1.290733 0.799525 -8.057232 -6.735777 7.245676 5.406177 11.027890 -0.558754 14.824274 -12.218393 -8.197040 -11.886274 9.065977 0.943516 1.375766 2.161712 7.476286 0.572456 -2.252214 1.562315 1.192237 0.322102 2.795810 1.551400 3.229290 4.357143 1.496406 0.233596 -2.256550 -6.538281 3.616724 -7.617723 -3.462060 1.911226 -13.478889 3.559246 -8.107269 -10.156643 0.876332 -5.241145 18.120528 -8.340535 -2.694313 -13.674270 6.556938 -1.809471 -5.591687 3.993867 -2.942646 -11.134939 -5.571224 7.433337 -12.286675 1.132060 1.675457 14.424136 8.963621 4.810739 -5.077816 
-0.002520 -0.000089 0.001072 175.054924 23.439238 -17.216124 8.625473 5.319916 7.540026 -5.200419 -15.630409 -2.267596 -6.098494 12.129390 -8.219155 5.257757 2.265134 0.378380 -8.106914 -6.544669 7.070455 5.441107 10.758746 -0.364419 14.678874 -11.924736 -8.160958 -11.782280 8.837497 1.030864 1.404699 1.968244 7.606611 0.526793 -1.901604 1.826731 1.159474 0.206255 2.654042 1.964811 3.213150 3.763586 0.974451 0.482298 -2.193358 -8.043078 5.042984 -7.230648 -4.910032 2.306399 -12.517864 7.655679 -15.311675 -10.208119 0.520753 -5.043168 16.540237 -8.892764 -2.883928 -13.855449 7.653573 -2.399703 -5.560488 4.593382 -2.818255 -10.932928 -8.170042 11.541027 -15.014585 0.730003 1.759732 12.030769 9.853191 4.893401 -5.274087 
-0.005017 0.000370 -0.000639 175.226094 22.864432 -17.045273 8.284747 5.067246 7.276026 -5.252156 -14.602092 -1.899274 -5.625636 11.478399 -8.357605 5.571330 3.569088 -0.402804 -8.288606 -6.184732 6.711060 5.339512 10.118998 -0.238410 14.582057 -10.931427 -7.807841 -11.676525 7.847345 0.732059 1.286631 1.949467 7.518163 0.568542 -1.426691 2.286521 1.065656 0.138703 2.497306 2.366469 3.042811 3.141895 0.511709 0.336488 -2.237692 -9.908518 7.168652 -6.400293 -8.854729 2.228455 -10.125909 12.386816 -26.797963 -9.199588 0.191949 -5.367171 13.466333 -9.745433 -3.162915 -13.567918 9.307774 -3.750668 -5.278925 8.143506 -2.271477 -8.787812 -13.484617 21.889999 -16.557888 0.346207 2.572339 9.338483 10.966523 5.323754 -5.537465 
-0.010439 0.001013 -0.003320 175.253395 22.385936 -17.295353 7.953553 4.910967 7.622180 -5.243568 -13.626883 -1.930196 -4.908545 10.405791 -8.246240 5.537484 5.315082 -1.577912 -8.523900 -5.783972 6.682847 5.069551 9.149120 0.066983 14.412357 -9.623376 -7.121833 -11.444506 6.287602 -0.249172 1.233501 1.921239 7.611620 0.576310 -1.144878 2.851967 1.028854 -0.008242 2.273687 2.561170 2.769232 2.609308 0.166403 0.073721 -2.715356 -11.962080 8.182427 -5.047188 -15.401152 1.379701 -7.033582 14.734181 -37.095448 -4.769406 1.118582 -6.413319 12.921443 -10.110926 -3.527262 -13.418626 10.993406 -4.306335 -4.349678 14.634208 -1.434419 -4.528658 -17.751529 34.402253 -13.234209 -2.380691 4.401410 10.444908 12.036331 6.155926 -6.155073 
-0.018062 0.001821 -0.006151 175.263103 21.792592 -17.827936 7.701594 5.082424 8.503461 -5.358859 -12.700901 -2.274935 -4.059026 8.790093 -8.188937 5.183525 7.701658 -2.618378 -8.885953 -5.318238 6.971948 4.739005 7.863005 0.402047 13.847989 -7.932767 -6.362702 -10.266420 4.655393 -0.960897 1.004008 1.852575 7.661556 0.420191 -1.004479 3.695000 0.832597 -0.270619 1.735062 3.417971 2.621258 2.181504 -0.136986 -0.449212 -2.787862 -15.147985 7.782873 -3.652417 -22.460799 -0.286882 -3.463666 14.281694 -44.231742 1.506885 1.775880 -7.207901 14.895778 -10.383871 -3.825145 -14.036075 13.682446 -3.560331 -3.305288 22.751689 0.168585 0.815115 -18.613306 45.382663 -8.567364 -4.348973 6.058304 10.183353 12.848401 6.920574 -6.712288 
-0.024783 0.003027 -0.008906 175.110475 20.606442 -18.390629 7.711156 5.105884 9.266093 -5.538933 -11.434425 -2.264802 -3.072349 7.682833 -8.683114 4.719865 9.073967 -2.903079 -8.946994 -4.853635 6.665242 4.566269 6.868700 1.586128 13.021602 -6.033751 -5.936742 -8.660308 3.358504 -1.381229 0.617145 2.003234 7.566347 0.468698 -0.783081 4.592746 0.791328 -0.289175 1.179067 4.045255 2.680943 1.196703 -0.149046 -1.035822 -2.635720 -18.743486 6.101870 -2.327208 -29.893996 -2.558896 0.943645 10.522526 -48.217498 7.498561 3.975406 -7.729375 13.389792 -10.560845 -4.129676 -13.190324 17.117809 -1.603680 -1.788323 30.532422 2.129634 6.823432 -14.384781 53.427757 0.172427 -5.854098 7.439745 10.764277 13.015678 7.747213 -7.017174 
-0.028963 0.003872 -0.011511 175.023038 18.901882 -18.743660 7.917148 5.300796 10.007190 -5.545109 -9.722255 -2.522281 -2.563609 6.643058 -9.052861 4.821885 10.166030 -2.876235 -8.735074 -4.370467 6.306073 4.365587 5.808372 2.123072 12.427155 -3.931800 -5.144181 -7.403268 2.281706 -1.508500 0.175563 2.078581 7.482119 0.597189 -0.728064 5.519962 0.830692 -0.317606 0.453972 4.510366 3.307572 -0.325001 -0.484467 -1.561446 -2.366230 -22.045838 3.803475 -0.717136 -37.276014 -4.175272 5.825356 5.717768 -51.554234 13.661742 5.576388 -7.985548 10.905814 -11.150298 -4.583734 -12.976953 20.468876 1.174991 -0.355688 38.156062 4.789134 12.029555 -10.597803 59.109739 5.576694 -7.532047 8.276665 8.701121 13.800151 8.570243 -7.782577 
-0.030690 0.004356 -0.013186 175.120469 17.031086 -18.624982 8.011222 5.168635 10.173162 -5.549165 -7.848021 -2.475764 -2.274498 6.287089 -9.445909 5.422863 10.236402 -2.721151 -8.461873 -3.875001 5.375831 4.276502 5.300405 2.889396 12.089040 -2.228141 -4.740587 -6.835736 1.586612 -1.443967 -0.224782 2.171578 6.675126 0.858776 -0.866420 6.312841 0.861643 -0.234724 0.005214 4.593660 3.660386 -1.272003 -0.472570 -1.994371 -1.897401 -23.419707 1.155333 0.602746 -43.534234 -5.653017 11.237415 -2.184143 -56.531357 21.113158 7.171034 -8.125270 4.171155 -11.746885 -4.723452 -11.370078 21.804692 3.764486 0.643922 43.583890 7.491941 16.651002 -5.863039 66.427324 11.981723 -8.111226 8.937702 6.598813 13.948666 9.259517 -8.244756 
-0.030585 0.004370 -0.013038 175.310177 16.038724 -18.618206 8.030086 5.114801 10.381410 -5.489503 -6.596195 -2.368346 -2.336996 5.736899 -9.627800 6.129637 10.976479 -2.886946 -8.416846 -3.479838 5.512737 4.226201 4.990317 2.421405 11.923634 -1.175513 -4.421511 -6.458003 1.088259 -1.155403 -0.403967 2.078126 5.729632 1.094743 -1.261842 7.194569 0.947310 -0.396013 -0.360872 4.680752 4.188015 -1.277033 -1.029743 -2.019133 -1.538231 -23.223113 -1.472723 1.530348 -47.246862 -7.030620 15.748373 -12.865762 -63.681629 34.253764 6.433531 -8.738108 1.084227 -12.031500 -4.504787 -10.989273 21.257369 6.163669 0.896032 46.310754 10.208506 19.616623 -0.252117 74.367984 18.603868 -7.912392 9.221451 3.514415 14.165783 9.502959 -8.716871 
